<svg width="19" height="18" viewBox="0 0 19 18" fill="none" xmlns="http://www.w3.org/2000/svg">
<path d="M8.45223 0.696468C8.75396 -0.232135 10.0677 -0.232137 10.3694 0.696467L11.9 5.40722C12.035 5.82251 12.4219 6.10368 12.8586 6.10368H17.8118C18.7882 6.10368 19.1941 7.3531 18.4042 7.92701L14.397 10.8384C14.0438 11.0951 13.8959 11.55 14.0309 11.9653L15.5615 16.6761C15.8632 17.6047 14.8004 18.3769 14.0105 17.8029L10.0033 14.8915C9.65 14.6349 9.17164 14.6349 8.81838 14.8915L4.81117 17.8029C4.02126 18.3769 2.95843 17.6047 3.26015 16.6761L4.79077 11.9653C4.9257 11.55 4.77788 11.0951 4.42462 10.8384L0.417413 7.92701C-0.372504 7.3531 0.0334595 6.10368 1.00985 6.10368H5.96303C6.39969 6.10368 6.78668 5.82251 6.92162 5.40722L8.45223 0.696468Z" fill="#FEBA09"/>
</svg>
