<svg width="20" height="20" viewBox="0 0 20 20" fill="none" xmlns="http://www.w3.org/2000/svg">
<path d="M11.9666 11.8583C11.4096 12.3075 10.7155 12.5524 9.99996 12.5524C9.28439 12.5524 8.59036 12.3075 8.0333 11.8583C7.86312 11.7169 7.64371 11.6488 7.42336 11.6692C7.203 11.6895 6.99975 11.7965 6.8583 11.9667C6.71685 12.1368 6.6488 12.3562 6.66911 12.5766C6.68943 12.797 6.79645 13.0002 6.96663 13.1417C7.81774 13.8522 8.89126 14.2414 9.99996 14.2414C11.1087 14.2414 12.1822 13.8522 13.0333 13.1417C13.2035 13.0002 13.3105 12.797 13.3308 12.5766C13.3511 12.3562 13.2831 12.1368 13.1416 11.9667C13.0716 11.8824 12.9856 11.8128 12.8887 11.7617C12.7917 11.7107 12.6857 11.6792 12.5766 11.6692C12.3562 11.6488 12.1368 11.7169 11.9666 11.8583ZM7.49996 9.16667C7.66478 9.16667 7.8259 9.11779 7.96294 9.02623C8.09998 8.93466 8.20679 8.80451 8.26986 8.65224C8.33294 8.49997 8.34944 8.33241 8.31728 8.17076C8.28513 8.00911 8.20576 7.86062 8.08922 7.74408C7.97267 7.62753 7.82419 7.54817 7.66254 7.51601C7.50089 7.48386 7.33333 7.50036 7.18106 7.56343C7.02879 7.62651 6.89864 7.73332 6.80707 7.87036C6.7155 8.0074 6.66663 8.16852 6.66663 8.33333C6.66663 8.55435 6.75443 8.76631 6.91071 8.92259C7.06699 9.07887 7.27895 9.16667 7.49996 9.16667ZM12.5 7.5C12.3351 7.5 12.174 7.54887 12.037 7.64044C11.8999 7.73201 11.7931 7.86216 11.7301 8.01443C11.667 8.1667 11.6505 8.33426 11.6826 8.49591C11.7148 8.65756 11.7942 8.80605 11.9107 8.92259C12.0273 9.03913 12.1757 9.1185 12.3374 9.15066C12.499 9.18281 12.6666 9.16631 12.8189 9.10323C12.9711 9.04016 13.1013 8.93335 13.1929 8.79631C13.2844 8.65927 13.3333 8.49815 13.3333 8.33333C13.3333 8.11232 13.2455 7.90036 13.0892 7.74408C12.9329 7.5878 12.721 7.5 12.5 7.5ZM9.99996 1.66667C8.35179 1.66667 6.74062 2.15541 5.37021 3.07109C3.9998 3.98677 2.9317 5.28825 2.30097 6.81097C1.67024 8.33369 1.50521 10.0092 1.82675 11.6258C2.1483 13.2423 2.94197 14.7271 4.10741 15.8926C5.27284 17.058 6.7577 17.8517 8.37421 18.1732C9.99072 18.4948 11.6663 18.3297 13.189 17.699C14.7117 17.0683 16.0132 16.0002 16.9289 14.6298C17.8446 13.2593 18.3333 11.6482 18.3333 10C18.3333 8.90565 18.1177 7.82202 17.699 6.81097C17.2802 5.79992 16.6663 4.88127 15.8925 4.10744C15.1187 3.33362 14.2 2.71979 13.189 2.301C12.1779 1.88222 11.0943 1.66667 9.99996 1.66667ZM9.99996 16.6667C8.68142 16.6667 7.39249 16.2757 6.29616 15.5431C5.19983 14.8106 4.34535 13.7694 3.84077 12.5512C3.33618 11.333 3.20416 9.99261 3.46139 8.6994C3.71863 7.40619 4.35357 6.21831 5.28592 5.28596C6.21827 4.35361 7.40615 3.71867 8.69936 3.46143C9.99257 3.2042 11.333 3.33622 12.5512 3.8408C13.7694 4.34539 14.8105 5.19987 15.5431 6.2962C16.2756 7.39253 16.6666 8.68146 16.6666 10C16.6666 11.7681 15.9643 13.4638 14.714 14.714C13.4638 15.9643 11.7681 16.6667 9.99996 16.6667Z" fill="#75839D"/>
</svg>
