<svg width="20" height="20" viewBox="0 0 20 20" fill="none" xmlns="http://www.w3.org/2000/svg">
<path d="M16.9502 7.76657L5.28354 1.93324C4.82312 1.70408 4.30322 1.62249 3.79473 1.69961C3.28625 1.77673 2.81392 2.00879 2.44215 2.36417C2.07038 2.71954 1.81725 3.18092 1.71728 3.68541C1.61732 4.1899 1.67537 4.71295 1.88354 5.18324L3.88354 9.65824C3.92892 9.76643 3.95229 9.88258 3.95229 9.9999C3.95229 10.1172 3.92892 10.2334 3.88354 10.3416L1.88354 14.8166C1.71412 15.1972 1.6425 15.6141 1.67519 16.0294C1.70787 16.4447 1.84382 16.8453 2.07069 17.1947C2.29756 17.5441 2.60814 17.8312 2.97423 18.0301C3.34031 18.2289 3.75027 18.3331 4.16687 18.3332C4.55707 18.3293 4.94145 18.2382 5.29187 18.0666L16.9585 12.2332C17.3724 12.0251 17.7202 11.706 17.9633 11.3116C18.2063 10.9173 18.3351 10.4631 18.3351 9.9999C18.3351 9.53666 18.2063 9.08253 17.9633 8.68817C17.7202 8.29382 17.3724 7.97475 16.9585 7.76657H16.9502ZM16.2085 10.7416L4.54187 16.5749C4.38867 16.6485 4.21665 16.6734 4.04886 16.6464C3.88107 16.6195 3.72555 16.5418 3.60313 16.4239C3.48072 16.3061 3.39727 16.1536 3.36398 15.9869C3.33069 15.8203 3.34915 15.6474 3.41687 15.4916L5.40854 11.0166C5.43432 10.9568 5.45658 10.8956 5.47521 10.8332H11.2169C11.4379 10.8332 11.6498 10.7454 11.8061 10.5892C11.9624 10.4329 12.0502 10.2209 12.0502 9.9999C12.0502 9.77889 11.9624 9.56693 11.8061 9.41065C11.6498 9.25437 11.4379 9.16657 11.2169 9.16657H5.47521C5.45658 9.10421 5.43432 9.04299 5.40854 8.98324L3.41687 4.50824C3.34915 4.35237 3.33069 4.17953 3.36398 4.01288C3.39727 3.84623 3.48072 3.69374 3.60313 3.57586C3.72555 3.45798 3.88107 3.38034 4.04886 3.35336C4.21665 3.32638 4.38867 3.35134 4.54187 3.4249L16.2085 9.25824C16.345 9.32817 16.4596 9.43441 16.5396 9.56527C16.6196 9.69613 16.6619 9.84653 16.6619 9.9999C16.6619 10.1533 16.6196 10.3037 16.5396 10.4345C16.4596 10.5654 16.345 10.6716 16.2085 10.7416Z" fill="#0061FF"/>
</svg>
