<svg width="20" height="20" viewBox="0 0 20 20" fill="none" xmlns="http://www.w3.org/2000/svg">
<path d="M9.99992 12.5C10.884 12.5 11.7318 12.1488 12.3569 11.5237C12.9821 10.8986 13.3333 10.0507 13.3333 9.16667V4.16667C13.3333 3.28261 12.9821 2.43476 12.3569 1.80964C11.7318 1.18452 10.884 0.833333 9.99992 0.833333C9.11586 0.833333 8.26802 1.18452 7.6429 1.80964C7.01777 2.43476 6.66659 3.28261 6.66659 4.16667V9.16667C6.66659 10.0507 7.01777 10.8986 7.6429 11.5237C8.26802 12.1488 9.11586 12.5 9.99992 12.5ZM8.33325 4.16667C8.33325 3.72464 8.50885 3.30072 8.82141 2.98815C9.13397 2.67559 9.55789 2.5 9.99992 2.5C10.4419 2.5 10.8659 2.67559 11.1784 2.98815C11.491 3.30072 11.6666 3.72464 11.6666 4.16667V9.16667C11.6666 9.60869 11.491 10.0326 11.1784 10.3452C10.8659 10.6577 10.4419 10.8333 9.99992 10.8333C9.55789 10.8333 9.13397 10.6577 8.82141 10.3452C8.50885 10.0326 8.33325 9.60869 8.33325 9.16667V4.16667ZM16.6666 9.16667C16.6666 8.94565 16.5788 8.73369 16.4225 8.57741C16.2662 8.42113 16.0543 8.33333 15.8333 8.33333C15.6122 8.33333 15.4003 8.42113 15.244 8.57741C15.0877 8.73369 14.9999 8.94565 14.9999 9.16667C14.9999 10.4927 14.4731 11.7645 13.5355 12.7022C12.5978 13.6399 11.326 14.1667 9.99992 14.1667C8.67384 14.1667 7.40207 13.6399 6.46438 12.7022C5.5267 11.7645 4.99992 10.4927 4.99992 9.16667C4.99992 8.94565 4.91212 8.73369 4.75584 8.57741C4.59956 8.42113 4.3876 8.33333 4.16659 8.33333C3.94557 8.33333 3.73361 8.42113 3.57733 8.57741C3.42105 8.73369 3.33325 8.94565 3.33325 9.16667C3.33472 10.7894 3.92802 12.3559 5.00192 13.5725C6.07581 14.789 7.55657 15.5722 9.16658 15.775V17.5H7.49992C7.2789 17.5 7.06694 17.5878 6.91066 17.7441C6.75438 17.9004 6.66659 18.1123 6.66659 18.3333C6.66659 18.5543 6.75438 18.7663 6.91066 18.9226C7.06694 19.0789 7.2789 19.1667 7.49992 19.1667H12.4999C12.7209 19.1667 12.9329 19.0789 13.0892 18.9226C13.2455 18.7663 13.3333 18.5543 13.3333 18.3333C13.3333 18.1123 13.2455 17.9004 13.0892 17.7441C12.9329 17.5878 12.7209 17.5 12.4999 17.5H10.8333V15.775C12.4433 15.5722 13.924 14.789 14.9979 13.5725C16.0718 12.3559 16.6651 10.7894 16.6666 9.16667Z" fill="#75839D"/>
</svg>
