<svg width="20" height="20" viewBox="0 0 20 20" fill="none" xmlns="http://www.w3.org/2000/svg">
<path d="M10.0001 1.66667C8.35191 1.66667 6.74074 2.15541 5.37033 3.07109C3.99992 3.98677 2.93182 5.28825 2.30109 6.81097C1.67036 8.33369 1.50533 10.0092 1.82687 11.6258C2.14842 13.2423 2.94209 14.7271 4.10753 15.8926C5.27297 17.058 6.75782 17.8517 8.37433 18.1732C9.99084 18.4948 11.6664 18.3297 13.1891 17.699C14.7118 17.0683 16.0133 16.0002 16.929 14.6298C17.8447 13.2593 18.3334 11.6482 18.3334 10C18.3334 8.90565 18.1179 7.82202 17.6991 6.81097C17.2803 5.79993 16.6665 4.88127 15.8926 4.10744C15.1188 3.33362 14.2002 2.71979 13.1891 2.30101C12.1781 1.88222 11.0944 1.66667 10.0001 1.66667ZM10.0001 16.6667C8.68154 16.6667 7.39261 16.2757 6.29628 15.5431C5.19996 14.8106 4.34547 13.7694 3.84089 12.5512C3.3363 11.3331 3.20428 9.99261 3.46152 8.6994C3.71875 7.40619 4.35369 6.21831 5.28604 5.28596C6.21839 4.35361 7.40628 3.71867 8.69948 3.46143C9.99269 3.2042 11.3331 3.33622 12.5513 3.8408C13.7695 4.34539 14.8107 5.19987 15.5432 6.2962C16.2758 7.39253 16.6668 8.68146 16.6668 10C16.6668 11.7681 15.9644 13.4638 14.7141 14.714C13.4639 15.9643 11.7682 16.6667 10.0001 16.6667ZM13.3334 9.16667H10.8334V6.66667C10.8334 6.44565 10.7456 6.23369 10.5893 6.07741C10.4331 5.92113 10.2211 5.83333 10.0001 5.83333C9.77907 5.83333 9.56711 5.92113 9.41083 6.07741C9.25455 6.23369 9.16675 6.44565 9.16675 6.66667V9.16667H6.66675C6.44574 9.16667 6.23378 9.25447 6.0775 9.41075C5.92122 9.56703 5.83342 9.77899 5.83342 10C5.83342 10.221 5.92122 10.433 6.0775 10.5893C6.23378 10.7455 6.44574 10.8333 6.66675 10.8333H9.16675V13.3333C9.16675 13.5543 9.25455 13.7663 9.41083 13.9226C9.56711 14.0789 9.77907 14.1667 10.0001 14.1667C10.2211 14.1667 10.4331 14.0789 10.5893 13.9226C10.7456 13.7663 10.8334 13.5543 10.8334 13.3333V10.8333H13.3334C13.5544 10.8333 13.7664 10.7455 13.9227 10.5893C14.079 10.433 14.1668 10.221 14.1668 10C14.1668 9.77899 14.079 9.56703 13.9227 9.41075C13.7664 9.25447 13.5544 9.16667 13.3334 9.16667Z" fill="#75839D"/>
</svg>
